<?xml version="1.0" encoding="utf-8"?>
<!-- Generator: Adobe Illustrator 19.0.0, SVG Export Plug-In . SVG Version: 6.00 Build 0)  -->
<svg version="1.1" id="Layer_1" xmlns="http://www.w3.org/2000/svg" xmlns:xlink="http://www.w3.org/1999/xlink" x="0px" y="0px"
	 viewBox="0 0 96 96" style="enable-background:new 0 0 96 96;" xml:space="preserve">
<style type="text/css">
	.st0{fill:#333333;}
</style>
<g id="XMLID_2_">
	<path id="XMLID_6_" class="st0" d="M71.3,63.9V40.6c0-0.9-0.3-1.6-0.9-2.2c-0.6-0.6-1.4-0.9-2.2-0.9H44.8c-0.9,0-1.6-0.3-2.2-0.9
		s-0.9-1.4-0.9-2.2v-2.1c0-0.9-0.3-1.6-0.9-2.2c-0.6-0.6-1.4-0.9-2.2-0.9H27.9c-0.9,0-1.6,0.3-2.2,0.9c-0.6,0.6-0.9,1.4-0.9,2.2
		v31.7c0,0.9,0.3,1.6,0.9,2.2c0.6,0.6,1.4,0.9,2.2,0.9h40.2c0.9,0,1.6-0.3,2.2-0.9C71,65.5,71.3,64.7,71.3,63.9z M75.5,40.6v23.3
		c0,2-0.7,3.8-2.2,5.2c-1.5,1.5-3.2,2.2-5.2,2.2H27.9c-2,0-3.8-0.7-5.2-2.2c-1.5-1.5-2.2-3.2-2.2-5.2V32.1c0-2,0.7-3.8,2.2-5.2
		s3.2-2.2,5.2-2.2h10.6c2,0,3.8,0.7,5.2,2.2s2.2,3.2,2.2,5.2v1.1h22.2c2,0,3.8,0.7,5.2,2.2C74.8,36.8,75.5,38.6,75.5,40.6z"/>
</g>
</svg>
