<?xml version="1.0" encoding="utf-8"?>
<!-- Generator: Adobe Illustrator 19.0.0, SVG Export Plug-In . SVG Version: 6.00 Build 0)  -->
<svg version="1.1" id="Layer_1" xmlns="http://www.w3.org/2000/svg" xmlns:xlink="http://www.w3.org/1999/xlink" x="0px" y="0px"
	 viewBox="0 0 96 96" style="enable-background:new 0 0 96 96;" xml:space="preserve">
<style type="text/css">
	.st0{fill:#333333;}
</style>
<g id="XMLID_2_">
	<path id="XMLID_7_" class="st0" d="M71.8,50.9c0-0.7-0.5-1-1.5-1H38.9c-0.8,0-1.6,0.2-2.5,0.6c-0.9,0.4-1.6,0.9-2.1,1.5l-8.5,10.5
		c-0.3,0.5-0.5,0.8-0.5,1.2c0,0.7,0.5,1,1.5,1h31.3c0.8,0,1.6-0.2,2.5-0.6c0.9-0.4,1.6-0.9,2-1.5L71.3,52
		C71.6,51.6,71.8,51.2,71.8,50.9z M38.9,46.2h22.1v-4.6c0-0.8-0.3-1.4-0.8-2c-0.5-0.5-1.2-0.8-2-0.8H41.7c-0.8,0-1.4-0.3-2-0.8
		s-0.8-1.2-0.8-2v-1.8c0-0.8-0.3-1.4-0.8-2c-0.5-0.5-1.2-0.8-2-0.8H27c-0.8,0-1.4,0.3-2,0.8c-0.5,0.5-0.8,1.2-0.8,2v24.6l7.4-9.1
		c0.8-1,2-1.9,3.3-2.5S37.6,46.2,38.9,46.2z M75.5,50.9c0,1.2-0.4,2.3-1.3,3.5l-8.5,10.5c-0.8,1-1.9,1.9-3.3,2.5s-2.7,1-4,1H27
		c-1.8,0-3.3-0.6-4.6-1.9c-1.3-1.3-1.9-2.8-1.9-4.6V34.2c0-1.8,0.6-3.3,1.9-4.6s2.8-1.9,4.6-1.9h9.2c1.8,0,3.3,0.6,4.6,1.9
		c1.3,1.3,1.9,2.8,1.9,4.6v0.9h15.7c1.8,0,3.3,0.6,4.6,1.9c1.3,1.3,1.9,2.8,1.9,4.6v4.6h5.5c1,0,2,0.2,2.9,0.7s1.5,1.1,1.9,2
		C75.4,49.5,75.5,50.2,75.5,50.9z"/>
</g>
</svg>
